<?xml version="1.0" encoding="UTF-8" standalone="no"?>
<svg
   xmlns:dc="http://purl.org/dc/elements/1.1/"
   xmlns:cc="http://creativecommons.org/ns#"
   xmlns:rdf="http://www.w3.org/1999/02/22-rdf-syntax-ns#"
   xmlns:svg="http://www.w3.org/2000/svg"
   xmlns="http://www.w3.org/2000/svg"
   viewBox="0 0 124.24 124.26667"
   xml:space="preserve"
   id="svg2"
   version="1.1"><metadata
     id="metadata8"><rdf:RDF><cc:Work
         rdf:about=""><dc:format>image/svg+xml</dc:format><dc:type
           rdf:resource="http://purl.org/dc/dcmitype/StillImage" /></cc:Work></rdf:RDF></metadata><defs
     id="defs6" /><g
     transform="matrix(1.3333333,0,0,-1.3333333,0,124.26667)"
     id="g10"><g
       transform="scale(0.1)"
       id="g12"><path
         id="path14"
         style="fill:#38b970;fill-opacity:1;fill-rule:nonzero;stroke:none"
         d="M 697.738,799.684 C 651.168,820.496 566.547,777.066 471.359,683.523 401.59,614.953 334.973,528.227 283.773,439.309 c -2.804,-4.871 -5.535,-9.707 -8.203,-14.532 40.082,84.934 96.567,173.52 161.844,248.571 46.797,53.804 94.129,95.902 136.871,121.757 31.492,19.047 59.5,28.797 82.274,28.797 6.539,0 12.648,-0.8 18.281,-2.422 14.215,-4.085 25.109,-13.308 32.605,-27.519 -3.222,2.434 -6.515,4.297 -9.707,5.723 z M 235.656,363.012 c 0.617,2.097 1.227,4.199 1.86,6.316 30.429,101.145 83.273,206.055 148.789,295.41 45.457,61.992 94.054,112.16 140.547,145.078 39.777,28.164 76.519,42.809 107.089,42.809 3.59,0 7.09,-0.199 10.504,-0.605 17.715,-2.106 32.539,-9.633 44.332,-22.457 -3.57,1.738 -7.089,3.05 -10.453,4.019 -28.707,8.25 -66.941,-1.324 -110.554,-27.707 C 523.918,779.359 475.559,736.383 427.914,681.609 358.645,601.969 297,504.977 254.328,408.496 c -6.851,-15.484 -13.07,-30.672 -18.672,-45.484 z m -28.972,-67.129 c 0.996,11.441 2.343,23.152 4.07,35.125 15.109,104.758 56.309,217.121 116.016,316.402 41.117,68.367 88.476,125.887 136.964,166.348 46.606,38.887 92.52,60.75 132.782,63.226 2.597,0.157 5.16,0.239 7.695,0.239 20.09,0 38.102,-5.028 53.887,-15.004 -3.926,1.031 -7.985,1.801 -12.168,2.301 C 572.875,873.195 469.504,799.5 376.156,672.18 309.813,581.699 256.297,475.438 225.465,372.961 217.387,346.098 211.129,320.316 206.684,295.883 Z M 152.418,195.305 c -26.398,46.933 -44.383,99.375 -53.4571,155.851 -9.4062,58.535 -8.7734,118.848 1.8831,179.27 10.652,60.429 30.687,117.324 59.543,169.113 27.843,49.965 62.683,93.086 103.543,128.168 40.769,35.004 85.476,60.234 132.883,74.984 26.812,8.348 53.859,13.106 80.906,14.297 -19.336,-4.222 -38.801,-10.804 -58.211,-19.777 C 312.125,847.551 219.391,730.973 171.441,585.371 132.844,468.16 126.871,345.559 154.637,240.156 c 12.457,-47.301 31.117,-88.789 55.504,-123.543 -21.868,22.961 -41.184,49.278 -57.723,78.692 z m 376.199,714.703 c 8.344,0 16.625,-0.488 24.828,-1.469 -10.363,-0.867 -20.914,-2.637 -31.617,-5.359 C 472.723,890.711 421.672,858.988 374.195,811.449 325.602,762.785 281.82,698.449 247.582,625.398 196.129,515.617 170.055,395.922 174.168,288.352 c 1.684,-44.09 8.363,-84.043 19.613,-118.821 -52.242,108.137 -59.906,261.543 -10.39,411.907 46.879,142.351 137.125,256.128 241.402,304.351 34.867,16.129 69.867,24.219 103.824,24.219 z m 39.168,-13.457 c 15.723,0 30.871,-2.375 45.235,-7.082 -5.629,0.402 -11.391,0.441 -17.274,0.074 C 507.328,884.109 400.129,793.816 315.984,653.895 255.434,553.211 213.637,439.184 198.297,332.805 c -5.375,-37.293 -7.266,-72.129 -5.785,-103.848 -18.242,111.965 3.41,256.566 66.465,391.098 33.625,71.75 76.546,134.859 124.125,182.5 45.875,45.937 94.918,76.515 141.824,88.429 14.648,3.719 28.976,5.567 42.859,5.567 z M 717.508,761.508 c -1.742,10.93 -4.211,21.039 -7.399,30.285 -0.906,2.645 -1.875,5.223 -2.898,7.723 -0.106,0.246 -0.195,0.5 -0.293,0.742 -3.625,8.625 -7.723,16.609 -12.293,23.937 -0.047,0.075 -0.09,0.157 -0.141,0.235 -0.679,1.082 -1.359,2.144 -2.058,3.195 -2.043,3.078 -4.16,6.043 -6.356,8.883 -24.402,31.64 -59.597,52.742 -97.039,65.258 -32.668,10.914 -67.355,15.554 -101.679,17.148 -7.129,0.328 -14.282,0.496 -21.461,0.496 -27.008,0 -53.653,-2.332 -79.805,-6.972 C 339.633,896.926 295.813,871.656 255.734,837.25 213.746,801.199 177.973,756.926 149.406,705.66 119.859,652.645 99.3594,594.426 88.4609,532.613 77.5625,470.805 76.918,409.074 86.5391,349.152 95.8516,291.215 114.328,237.375 141.457,189.133 c 25.883,-46.035 58.43,-84.746 96.77,-115.215 -33.789,19.6406 -64.899,43.574 -92.903,71.574 -41.64,41.641 -74.324,90.125 -97.1638,144.11 -23.6368,55.878 -35.625,115.253 -35.625,176.461 0,61.207 11.9882,120.574 35.625,176.464 22.8398,53.981 55.5238,102.465 97.1638,144.102 41.637,41.641 90.117,74.324 144.102,97.164 31.23,13.207 63.547,22.773 96.66,28.645 2.324,0.777 4.652,1.535 6.988,2.261 44.434,13.828 91.492,18.473 137.711,12.688 2.746,-0.344 5.496,-0.723 8.242,-1.141 -46.414,7.332 -93.922,7.594 -140.422,0.875 -16.042,-2.312 -31.968,-5.453 -47.683,-9.43 C 328.238,911.969 305.98,904.523 284.469,895.324 233.07,873.332 185.484,842.293 144.938,803.777 104.43,765.301 70.9219,719.484 46.5117,669.234 20.5898,615.863 5.15234,557.586 1.09766,498.395 -2.04688,452.516 1.57422,406.156 11.832,361.328 21.7031,318.215 37.8555,276.582 59.5195,238.031 81.2148,199.438 108.453,163.977 140.102,133.02 c 30.906,-30.321 66.113,-56.2387 104.171,-76.8755 38.961,-21.1132 80.926,-35.9062 124.11,-45.75 45.578,-10.39059375 90.918,-11.124969 137.851,-1.37887 10.95,2.27347 21.789,5.07817 32.473,8.41017 2.336,0.7226 4.664,1.4805 6.984,2.2539 -7.375,-1.2383 -17.226,-2.6875 -25.273,-3.6524 -8.957,-1.0742 -17.949,-2.0312 -26.965,-2.4414 -45.398,-2.0703 -91.375,0.5274 -135.039,12.5196 -14.805,4.0625 -29.297,9.2265 -43.262,15.6172 -34.554,15.8007 -65.011,41.9531 -83.285,75.5153 -9.023,16.575 -14.625,34.785 -17.582,53.379 -5.043,31.68 -0.812,64.004 7.215,94.805 7.836,30.051 19.078,59.18 31.832,87.461 14.887,33.019 32.043,64.988 50.645,96.047 20.136,33.609 42.031,66.175 65.421,97.617 23.797,31.996 49.153,62.851 76.157,92.195 11.25,12.227 22.781,24.192 34.633,35.832 45.73,44.942 90.074,79.063 128.246,98.668 24.586,12.633 46.007,19.039 63.254,19.039 7.89,0 14.906,-1.34 20.945,-4.043 22.301,-9.961 27.168,-37.488 26.89,-60.883 0.266,12.211 -0.375,23.653 -2.015,34.153" /><path
         id="path16"
         style="fill:#5dc464;fill-opacity:1;fill-rule:nonzero;stroke:none"
         d="M 725.102,636.238 C 724.105,624.793 722.758,613.09 721.027,601.117 705.922,496.359 664.719,383.996 605.012,284.707 563.898,216.34 516.535,158.82 468.055,118.371 421.441,79.4766 375.531,57.6094 335.266,55.1406 c -23.207,-1.4258 -43.809,3.5352 -61.586,14.7657 3.925,-1.0391 7.988,-1.8086 12.172,-2.2969 3.886,-0.4688 7.851,-0.6953 11.906,-0.6953 72.113,0 169.484,72.4839 257.871,193.0309 66.34,90.477 119.855,196.743 150.687,299.215 8.082,26.867 14.336,52.645 18.786,77.078 z m 54.261,100.586 c 26.403,-46.945 44.387,-99.379 53.461,-155.851 9.406,-58.535 8.77,-118.852 -1.883,-179.282 C 820.285,341.273 800.25,284.367 771.395,232.578 743.551,182.617 708.715,139.492 667.855,104.414 627.082,69.4063 582.375,44.1836 534.973,29.4258 508.141,21.0859 481.082,16.3203 454.02,15.1289 c 19.351,4.2188 38.828,10.8008 58.253,19.7852 107.383,49.6601 200.118,166.2309 248.067,311.8359 38.598,117.211 44.57,239.816 16.805,345.215 -12.454,47.301 -31.118,88.789 -55.5,123.539 21.863,-22.957 41.179,-49.27 57.718,-78.68 z M 378.355,23.5977 c 10.36,0.8671 20.907,2.625 31.598,5.3398 49.106,12.4805 100.156,44.1992 147.633,91.7385 48.594,48.664 92.379,113 126.617,186.047 51.449,109.785 77.524,229.48 73.41,337.05 C 755.93,687.859 749.25,727.809 738,762.59 790.242,654.461 797.906,501.047 748.391,350.688 701.512,208.332 611.273,94.5547 506.988,46.3281 463.563,26.2422 419.918,18.6367 378.355,23.5977 Z m -59.597,19.0507 c 2.972,-0.2031 5.984,-0.3242 9.039,-0.3242 2.719,0 5.469,0.0821 8.246,0.2539 88.414,5.4336 195.609,95.7269 279.754,235.6489 60.555,100.679 102.351,214.714 117.687,321.093 5.379,37.293 7.27,72.129 5.789,103.84 C 757.512,591.199 735.863,446.594 672.809,312.063 639.184,240.316 596.258,177.207 548.68,129.563 502.805,83.6367 453.762,53.0508 406.859,41.1367 375.621,33.2031 345.805,33.7891 318.758,42.6484 Z m -75.746,59.9146 c 3.562,-1.739 7.09,-3.0591 10.453,-4.0278 6.687,-1.9219 13.89,-2.8711 21.562,-2.8711 25.25,0 55.536,10.3559 88.985,30.5779 43.851,26.524 92.211,69.492 139.859,124.27 69.266,79.644 130.91,176.64 173.582,273.113 6.852,15.488 13.07,30.668 18.672,45.488 -0.613,-2.105 -1.227,-4.203 -1.859,-6.324 C 663.836,461.648 610.992,356.742 545.477,267.387 500.023,205.395 451.422,155.227 404.93,122.309 360.484,90.8438 319.828,76.2422 287.336,80.1016 269.621,82.207 254.797,89.7383 243.012,102.563 Z m -18.672,35.593 c 3.223,-2.429 6.512,-4.297 9.707,-5.722 7.68,-3.426 16.394,-5.118 26.023,-5.118 48.746,0 120.871,43.176 200.352,121.282 69.769,68.574 136.391,155.3 187.59,244.218 2.801,4.872 5.531,9.711 8.203,14.532 C 616.129,422.414 559.645,333.82 494.367,258.781 447.57,204.973 400.242,162.871 357.496,137.016 316.965,112.504 282.191,103.383 256.941,110.637 242.73,114.73 231.836,123.949 224.34,138.156 Z m 677.203,493.399 c -11.613,30.527 -26.453,59.84 -44.195,87.246 -18.399,28.414 -39.891,54.84 -63.965,78.629 -24.797,24.496 -52.613,46.445 -82.235,64.824 -22.148,13.738 -45.507,25.644 -69.64,35.473 -42.262,17.207 -87.391,29.078 -133.059,31.636 -38.949,2.184 -78.16,-3.082 -115.375,-14.664 -2.336,-0.726 -4.664,-1.484 -6.988,-2.261 26.152,4.64 52.797,6.972 79.805,6.972 44.121,0 89.191,-5.363 130.761,-20.672 6.489,-2.386 12.887,-5.023 19.161,-7.925 19.437,-8.981 37.726,-20.668 53.23,-35.504 26.324,-25.18 42.77,-57.934 48.457,-93.801 1.648,-10.5 2.289,-21.942 2.023,-34.153 -0.046,-2.46 -0.14,-4.957 -0.269,-7.48 C 712.758,603.453 593.141,396.66 451.594,257.551 405.871,212.609 361.52,178.488 323.348,158.879 c -35.836,-18.418 -64.953,-23.602 -84.2,-15 -22.3,9.973 -27.168,37.488 -26.89,60.891 -0.262,-12.219 0.375,-23.653 2.027,-34.153 1.742,-10.926 4.199,-21.043 7.387,-30.293 0.91,-2.636 1.871,-5.207 2.894,-7.707 3.707,-8.914 7.903,-17.176 12.606,-24.715 0.043,-0.07 0.082,-0.136 0.125,-0.203 0.68,-1.086 1.363,-2.148 2.062,-3.207 2.039,-3.074 4.161,-6.0428 6.375,-8.8631 l -0.004,-0.0391 c 5.879,-7.4609 12.192,-14.3281 18.938,-20.5781 1.324,-1.2304 2.668,-2.4492 4.031,-3.6328 2.989,-2.5898 6.059,-5.0586 9.215,-7.4101 0.516,-0.3829 1.039,-0.7657 1.563,-1.1446 10.203,-7.414 20.957,-13.9336 32.234,-19.4609 4.406,-2.1602 8.883,-4.1797 13.434,-6.0547 14.519,-5.8789 29.453,-10.625 44.761,-14.2305 -0.285,-0.0078 -0.566,-0.0195 -0.847,-0.0273 24.675,-5.3711 49.832,-8.6641 75.343,-9.836 7.137,-0.332 14.301,-0.5078 21.489,-0.5078 27.007,0 53.558,2.4219 79.8,6.9727 46.454,15.5195 90.278,40.7812 130.356,75.1953 41.992,36.047 77.766,80.324 106.332,131.582 29.543,53.02 50.047,111.242 60.945,173.059 10.903,61.804 11.547,123.527 1.918,183.449 -9.312,57.945 -27.789,111.781 -54.914,160.019 -25.887,46.036 -58.43,84.754 -96.769,115.215 33.789,-19.633 64.902,-43.566 92.902,-71.57 41.637,-41.637 74.328,-90.121 97.16,-144.102 23.637,-55.89 35.625,-115.257 35.625,-176.464 0,-61.208 -11.988,-120.583 -35.625,-176.461 C 860.789,235.617 828.098,187.133 786.461,145.492 744.82,103.859 696.34,71.1641 642.355,48.332 611.125,35.1172 578.805,25.5586 545.691,19.6797 543.371,18.9063 541.043,18.1484 538.707,17.4258 493.84,3.45703 446.344,-1.12109 399.703,4.89453 c -1.648,0.21485 -3.305,0.44922 -4.945,0.67578 45.922,-7.30469 93.336,-7.39453 139.308,-0.4414 21.981,3.22265 43.735,8.00779 65.024,14.34769 42.164,12.5547 82.5,31.1797 119.437,55.0664 29.008,18.7695 55.934,40.762 80.118,65.43 30.902,31.535 57.304,67.414 78.156,106.328 7.562,14.109 14.953,28.711 20.586,43.722 16.633,40.711 27.386,83.79 31.914,127.54 1.664,16.113 2.492,32.304 2.492,48.5 0,44.863 -6.414,89.691 -19.172,132.71 -3.281,11.059 -6.98,21.997 -11.078,32.782" /></g></g></svg>