<svg xmlns="http://www.w3.org/2000/svg" width="174.39" height="34.71" viewBox="0 0 174.39 34.71">
  <path d="M102,11.12h50.14a3.27,3.27,0,0,1,1.83.34,2.21,2.21,0,0,1,.9.94,3.93,3.93,0,0,1,.31,1.93V28a3.9,3.9,0,0,1-.31,1.93,2.29,2.29,0,0,1-.9.95,3.39,3.39,0,0,1-1.83.33H102a3.39,3.39,0,0,1-1.83-.33,2.23,2.23,0,0,1-.9-.95A3.76,3.76,0,0,1,99,28V14.33a3.78,3.78,0,0,1,.32-1.93,2.15,2.15,0,0,1,.9-.94A3.27,3.27,0,0,1,102,11.12Z" transform="translate(19.19 3.55)" fill="#e3ffe5"/>
  <g>
    <path d="M110.1,16.59c2.88,0,4.88,1.83,4.88,4.58s-2,4.61-4.86,4.61h-3.64V16.59Zm0,1.72h-1.69v5.74h1.67A2.75,2.75,0,0,0,113,21.17a2.68,2.68,0,0,0-2.86-2.86Z" transform="translate(19.19 3.55)" fill="#1c8448"/>
    <path d="M134.63,25.94a4.22,4.22,0,0,0,3.83-2.26l-1.68-.81a2.49,2.49,0,0,1-2.15,1.33,2.86,2.86,0,0,1-2.89-3,2.86,2.86,0,0,1,2.89-3,2.48,2.48,0,0,1,2.15,1.34l1.68-.83a4.18,4.18,0,0,0-3.83-2.25,4.76,4.76,0,1,0,0,9.51Z" transform="translate(19.19 3.55)" fill="#1c8448"/>
    <path d="M144.54,25.94c2.47,0,3.68-1.27,3.68-3,0-3.43-5.28-2.45-5.28-3.9,0-.55.47-.91,1.3-.91a3.94,3.94,0,0,1,2.67,1L148,17.73a5.11,5.11,0,0,0-3.58-1.28c-2.17,0-3.49,1.27-3.49,2.79,0,3.46,5.29,2.35,5.29,4,0,.53-.51,1-1.6,1A4,4,0,0,1,141.7,23l-1.07,1.53A5.27,5.27,0,0,0,144.54,25.94Z" transform="translate(19.19 3.55)" fill="#1c8448"/>
    <path d="M122.4,18.24a3,3,0,1,1-2.89,3,2.93,2.93,0,0,1,2.89-3Zm0-1.81a4.77,4.77,0,1,0,4.66,4.77,4.71,4.71,0,0,0-4.66-4.77Z" transform="translate(19.19 3.55)" fill="#1c8448"/>
  </g>
  <g>
    <path d="M7.53,2.8a6.94,6.94,0,0,0-.27-1.13c0-.1-.07-.2-.11-.29v0A6.75,6.75,0,0,0,6.68.46h0L6.6.33,6.36,0A7.53,7.53,0,0,0,2.75-2.43,14.33,14.33,0,0,0-1-3.07l-.8,0a17.17,17.17,0,0,0-3,.26A14.43,14.43,0,0,0-9.67,0a17.84,17.84,0,0,0-4,4.9,20.58,20.58,0,0,0-2.27,6.44A20.42,20.42,0,0,0-16,18.16a18.06,18.06,0,0,0,2,6,14.7,14.7,0,0,0,3.61,4.29,16.83,16.83,0,0,1-3.46-2.67,16.85,16.85,0,0,1-3.62-5.37,16.77,16.77,0,0,1-1.33-6.57A16.77,16.77,0,0,1-17.4,7.23a16.85,16.85,0,0,1,3.62-5.37A16.85,16.85,0,0,1-8.41-1.76a16.75,16.75,0,0,1,3.6-1.07l.26-.08A12.19,12.19,0,0,1,.58-3.38l.3,0a17.63,17.63,0,0,0-5.23,0A15.38,15.38,0,0,0-6.12-3a16.41,16.41,0,0,0-2.48.83,17.81,17.81,0,0,0-5.2,3.41,17.71,17.71,0,0,0-3.66,5,17.21,17.21,0,0,0-1.69,6.37,17.15,17.15,0,0,0,.4,5.1A17.06,17.06,0,0,0-17,22.29a17.9,17.9,0,0,0,3,3.92,17.76,17.76,0,0,0,3.88,2.86,17.89,17.89,0,0,0,4.63,1.7,11.83,11.83,0,0,0,5.13.06c.41-.09.81-.19,1.21-.32l.26-.08c-.27,0-.64.1-.94.13s-.67.08-1,.09a16,16,0,0,1-5-.46,11.13,11.13,0,0,1-1.62-.58,6.73,6.73,0,0,1-3.1-2.82,6.23,6.23,0,0,1-.65-2,8.65,8.65,0,0,1,.27-3.54A21,21,0,0,1-9.76,18a37,37,0,0,1,1.89-3.58c.75-1.25,1.56-2.47,2.43-3.64S-3.6,8.46-2.6,7.37c.42-.46.85-.9,1.29-1.34A21,21,0,0,1,3.47,2.36a5.4,5.4,0,0,1,2.35-.71,1.87,1.87,0,0,1,.78.15,2.28,2.28,0,0,1,1,2.27A7.27,7.27,0,0,0,7.53,2.8ZM2-2.23A5.29,5.29,0,0,1,3.64-2,4.56,4.56,0,0,0,3-2C-.3-1.77-4.29,1.59-7.42,6.8a33,33,0,0,0-4.39,12A20.18,20.18,0,0,0-12,22.63,26,26,0,0,1-9.55,8.07a23.88,23.88,0,0,1,4.63-6.8A11.94,11.94,0,0,1,.36-2,6.86,6.86,0,0,1,2-2.23ZM.5-2.73a7.09,7.09,0,0,1,.92,0,7.1,7.1,0,0,0-1.18.2A12.37,12.37,0,0,0-5.26.94,24.57,24.57,0,0,0-10,7.87a27.78,27.78,0,0,0-2.74,12.55A16.81,16.81,0,0,0-12,24.85c-1.94-4-2.23-9.75-.38-15.35,1.74-5.3,5.1-9.54,9-11.33A9.21,9.21,0,0,1,.5-2.73Zm-14,26.62a17.62,17.62,0,0,1-2-5.81,20,20,0,0,1,.07-6.68,20,20,0,0,1,2.22-6.3A17.4,17.4,0,0,1-9.36.33,13.92,13.92,0,0,1-4.41-2.46,11.61,11.61,0,0,1-1.4-3a10.27,10.27,0,0,0-2.17.73C-7.57-.41-11,3.93-12.81,9.36a22.93,22.93,0,0,0-.62,12.86,14.24,14.24,0,0,0,2.06,4.6A15.27,15.27,0,0,1-13.52,23.89Zm2-3.75c0-.43.09-.86.16-1.31A32.29,32.29,0,0,1-7,7.05,24.58,24.58,0,0,1-1.92.85,9,9,0,0,1,3-1.5h.29a3.62,3.62,0,0,1,2,.56L4.87-1c-2.73-.32-6.58,2.42-10,7.16A37.88,37.88,0,0,0-10.8,17.27,27.71,27.71,0,0,0-11.5,20.14Zm1.08-2.5a2.17,2.17,0,0,0,.07-.24,37.58,37.58,0,0,1,5.54-11A24.19,24.19,0,0,1,.43,1a7.32,7.32,0,0,1,4-1.6,2.56,2.56,0,0,1,.39,0A2.53,2.53,0,0,1,6.46.26,3.12,3.12,0,0,0,6.07.11C5-.2,3.58.16,2,1.14A23.58,23.58,0,0,0-3.26,5.77,41.51,41.51,0,0,0-9.72,16C-10,16.52-10.21,17.09-10.42,17.64ZM6.79,1.37C5.06.6,1.91,2.22-1.64,5.7a43.51,43.51,0,0,0-7,9.1c-.11.18-.21.36-.31.54a41.53,41.53,0,0,1,6-9.26A22.61,22.61,0,0,1,2.2,1.55,6.25,6.25,0,0,1,5.26.47a2.48,2.48,0,0,1,.68.09,2,2,0,0,1,1.22,1A2.4,2.4,0,0,0,6.79,1.37Z" transform="translate(19.19 3.55)" fill="#15b367"/>
    <path d="M14.39,7.64a17.73,17.73,0,0,0-1.65-3.25,17.73,17.73,0,0,0-2.38-2.93A18,18,0,0,0,7.29-1,17.52,17.52,0,0,0,4.7-2.28a15.64,15.64,0,0,0-5-1.18,12.21,12.21,0,0,0-4.29.55l-.26.08a17.17,17.17,0,0,1,3-.26A13.92,13.92,0,0,1,3-2.31,6.22,6.22,0,0,1,3.74-2a7.19,7.19,0,0,1,2,1.32,6.11,6.11,0,0,1,1.8,3.5,7.27,7.27,0,0,1,.08,1.27,2.53,2.53,0,0,0,0,.28c-.25,4.33-4.7,12-10,17.22a21.17,21.17,0,0,1-4.78,3.67c-1.34.69-2.42.88-3.14.56a2.29,2.29,0,0,1-1-2.27,7.45,7.45,0,0,0,.08,1.28,6.12,6.12,0,0,0,.27,1.12c0,.1.07.2.11.29a6.1,6.1,0,0,0,.47.92h0l.08.12.24.33h0a7.36,7.36,0,0,0,.7.77l.15.13.35.28.06,0a8.18,8.18,0,0,0,1.2.73l.5.22a10.69,10.69,0,0,0,1.66.53h0a17.57,17.57,0,0,0,2.81.37l.8,0a17.35,17.35,0,0,0,3-.26A14.67,14.67,0,0,0,6,27.63a18.18,18.18,0,0,0,4-4.9,20.73,20.73,0,0,0,2.27-6.45,20.62,20.62,0,0,0,.07-6.83,17.92,17.92,0,0,0-2-6A14.27,14.27,0,0,0,6.64-.8,16.79,16.79,0,0,1,10.1,1.86a16.85,16.85,0,0,1,3.62,5.37,16.77,16.77,0,0,1,1.33,6.57,16.77,16.77,0,0,1-1.33,6.57,16.85,16.85,0,0,1-3.62,5.37,16.85,16.85,0,0,1-5.37,3.62,16.92,16.92,0,0,1-3.6,1.07l-.26.08A12.27,12.27,0,0,1-4.31,31l-.18,0A16.73,16.73,0,0,0,.7,31a18,18,0,0,0,2.42-.53,17.47,17.47,0,0,0,4.45-2.06,16.93,16.93,0,0,0,3-2.43,17.36,17.36,0,0,0,2.91-4,12.74,12.74,0,0,0,.77-1.63,17.34,17.34,0,0,0,1.19-4.75c.06-.6.09-1.21.09-1.81a17.56,17.56,0,0,0-.71-4.94C14.68,8.45,14.54,8,14.39,7.64ZM-10.84,26a1.74,1.74,0,0,0,.36.22,2.33,2.33,0,0,0,1,.19c1.82,0,4.5-1.61,7.47-4.52a43.33,43.33,0,0,0,7-9.1c.11-.18.21-.36.31-.54a41.08,41.08,0,0,1-6,9.26,22.9,22.9,0,0,1-5.1,4.54c-1.51.91-2.8,1.25-3.74,1A2,2,0,0,1-10.84,26Zm.7,1.33a2.08,2.08,0,0,0,.39.15,2.92,2.92,0,0,0,.8.11,6.71,6.71,0,0,0,3.31-1.14A23.15,23.15,0,0,0-.43,21.83,41.68,41.68,0,0,0,6,11.66c.25-.58.49-1.15.69-1.7l-.06.24a37.49,37.49,0,0,1-5.55,11,24.23,24.23,0,0,1-5.23,5.41,6.75,6.75,0,0,1-4.38,1.57A2.59,2.59,0,0,1-10.14,27.34Zm2.82,2.23h.64C-3.38,29.37.61,26,3.74,20.8a33.09,33.09,0,0,0,4.39-12A20.18,20.18,0,0,0,8.34,5,26.08,26.08,0,0,1,5.87,19.54a24.38,24.38,0,0,1-4.63,6.79A11.91,11.91,0,0,1-4,29.63,5.87,5.87,0,0,1-7.32,29.57Zm2.22.71a7.28,7.28,0,0,0,1.18-.2,12.32,12.32,0,0,0,5.49-3.41,24.73,24.73,0,0,0,4.72-6.93A27.82,27.82,0,0,0,9,7.18a16.65,16.65,0,0,0-.74-4.42c2,4,2.24,9.74.39,15.34-1.74,5.3-5.11,9.54-9,11.34A8.88,8.88,0,0,1-5.1,30.28ZM9.84,3.72a17.49,17.49,0,0,1,2,5.8,20.26,20.26,0,0,1-.07,6.68,20.28,20.28,0,0,1-2.22,6.3,17.43,17.43,0,0,1-3.86,4.77A13.71,13.71,0,0,1,.73,30.06a11.78,11.78,0,0,1-3,.54,10.51,10.51,0,0,0,2.17-.74c4-1.85,7.45-6.19,9.24-11.61A23,23,0,0,0,9.75,5.39,14.36,14.36,0,0,0,7.69.79,14.67,14.67,0,0,1,9.84,3.72Zm-2,3.74c0,.43-.08.86-.15,1.31A32.58,32.58,0,0,1,3.34,20.56a24.52,24.52,0,0,1-5.1,6.19,9,9,0,0,1-4.95,2.36A3.76,3.76,0,0,1-9,28.56a3.54,3.54,0,0,0,.45.08,3.4,3.4,0,0,0,.45,0c2.68,0,6.31-2.7,9.6-7.19A37.61,37.61,0,0,0,7.11,10.33,23.38,23.38,0,0,0,7.81,7.46Z" transform="translate(19.19 3.55)" fill="#61be73"/>
  </g>
  <g>
    <path d="M26.1,26.41c-3.56,0-5.78-2.61-5.78-6.33s2.22-6.32,5.78-6.32,5.76,2.59,5.76,6.32S29.64,26.41,26.1,26.41Zm0-1.6c2.11,0,3.79-1.68,3.79-4.73s-1.68-4.72-3.79-4.72S22.29,17,22.29,20.08,24,24.81,26.1,24.81Z" transform="translate(19.19 3.55)" fill="#221f1f"/>
    <path d="M38,18.93c-.32,0-.62-.05-.91-.05-1.35,0-2.06.66-2.06,2.56v4.75H33.31V17.13H35v1.6a2.69,2.69,0,0,1,2.51-1.64,4,4,0,0,1,.49,0Z" transform="translate(19.19 3.55)" fill="#221f1f"/>
    <path d="M45.09,17.13h1.75v12H45.09V24.91a3.06,3.06,0,0,1-2.83,1.5c-2.11,0-3.91-1.77-3.91-4.73S40.15,17,42.26,17a3.06,3.06,0,0,1,2.83,1.5Zm-2.43,1.29c-1.46,0-2.44,1.18-2.44,3.26S41.2,25,42.66,25s2.5-1,2.5-3.27S44,18.42,42.66,18.42Z" transform="translate(19.19 3.55)" fill="#221f1f"/>
    <path d="M54.12,24.91a2.92,2.92,0,0,1-2.76,1.5c-2.14,0-3-1.31-3-3.52V17.13h1.75v5.29c0,1.3.22,2.51,1.81,2.51s2.19-1.08,2.19-2.88V17.13h1.75v9.06H54.12Z" transform="translate(19.19 3.55)" fill="#221f1f"/>
    <path d="M64,23.53h1.77a4,4,0,0,1-4.08,2.88c-2.91,0-4.51-2.12-4.51-4.77A4.37,4.37,0,0,1,61.6,17c2.8,0,4.43,2.29,4.25,5.24H58.94a2.69,2.69,0,0,0,2.64,2.71A2.33,2.33,0,0,0,64,23.53Zm-5-2.71H64a2.42,2.42,0,0,0-2.45-2.43A2.47,2.47,0,0,0,59,20.82Z" transform="translate(19.19 3.55)" fill="#221f1f"/>
    <path d="M72.44,19.65a1.86,1.86,0,0,0-2.06-1.29c-.86,0-1.79.35-1.79,1.09s.44.95,1.27,1.13l1.29.25c1.71.36,3.22.9,3.22,2.7s-1.72,2.88-3.8,2.88c-2.31,0-3.69-1.33-3.91-3h1.78A2,2,0,0,0,70.62,25c1.14,0,2-.47,2-1.28s-.79-1.18-1.73-1.36l-1.37-.27c-1.36-.27-2.64-.86-2.64-2.58s1.7-2.58,3.67-2.58a3.41,3.41,0,0,1,3.62,2.71Z" transform="translate(19.19 3.55)" fill="#221f1f"/>
    <path d="M76.11,14.8h1.75v2.33h1.79v1.33H77.86v5.17c0,.93.15,1.16,1,1.16h.74v1.4H78.35c-1.84,0-2.24-.45-2.24-2.32V18.46H74.73V17.13h1.38Z" transform="translate(19.19 3.55)" fill="#221f1f"/>
    <path d="M85.7,18.93c-.32,0-.63-.05-.91-.05-1.35,0-2.06.66-2.06,2.56v4.75H81V17.13H82.7v1.6a2.69,2.69,0,0,1,2.51-1.64,4.1,4.1,0,0,1,.49,0Z" transform="translate(19.19 3.55)" fill="#221f1f"/>
    <path d="M85.83,23.75c0-2.21,2.61-2.81,6.12-3.17V20.4c0-1.6-.85-2.14-2-2.14A1.73,1.73,0,0,0,88,20H86.25c.14-1.94,1.74-3.08,3.81-3.08,2.34,0,3.67,1.13,3.66,3.84,0,.22,0,1.79,0,2.17a17.49,17.49,0,0,0,.25,3.27H92.25A9.42,9.42,0,0,1,92.1,25a3.23,3.23,0,0,1-3,1.41C87.23,26.41,85.83,25.4,85.83,23.75ZM92,21.88c-2.81.27-4.3.67-4.3,1.84,0,.82.64,1.34,1.72,1.34A2.32,2.32,0,0,0,92,22.54Z" transform="translate(19.19 3.55)" fill="#221f1f"/>
  </g>
</svg>