<svg id="Layer_1" data-name="Layer 1" xmlns="http://www.w3.org/2000/svg" viewBox="0 0 465.32 93.17"><defs><style>.cls-1{fill:#15b367;}.cls-2{fill:#61be73;}.cls-3,.cls-4{fill:#231f20;}.cls-4{isolation:isolate;font-size:12px;font-family:SuisseIntl-Light, Suisse Intl;font-weight:300;}.cls-5{fill:#e3ffe5;}.cls-6{fill:#1c8448;}</style></defs><path class="cls-1" d="M77.61,19a17.3,17.3,0,0,0-.74-3c-.09-.27-.19-.52-.29-.77v-.08a15.42,15.42,0,0,0-1.23-2.39h0l-.21-.32c-.2-.3-.41-.6-.63-.88A20,20,0,0,0,64.76,5,37.3,37.3,0,0,0,54.6,3.28c-.72,0-1.43,0-2.15,0a46.63,46.63,0,0,0-8,.69,39,39,0,0,0-13,7.52A48.35,48.35,0,0,0,20.8,24.6a56.16,56.16,0,0,0-6.28,35.65,47.58,47.58,0,0,0,5.49,16,38.86,38.86,0,0,0,9.67,11.52A45.35,45.35,0,0,1,44.47,3.92l.7-.22A32.59,32.59,0,0,1,58.94,2.43l.82.11a46.93,46.93,0,0,0-14-.09A48.28,48.28,0,0,0,41,3.4a44.27,44.27,0,0,0-6.64,2.23,47.48,47.48,0,0,0-14,9.16A46.44,46.44,0,0,0,6,45.33,47.55,47.55,0,0,0,7,59a46.24,46.24,0,0,0,4.77,12.33A46.69,46.69,0,0,0,30.25,89.52,49,49,0,0,0,42.66,94.1a31.87,31.87,0,0,0,13.78.14,33,33,0,0,0,3.25-.85l.7-.22c-.74.12-1.72.27-2.53.36s-1.79.21-2.69.25a43.6,43.6,0,0,1-13.51-1.25A29.89,29.89,0,0,1,37.38,91a17.88,17.88,0,0,1-8.33-7.56,16.72,16.72,0,0,1-1.76-5.33A23.35,23.35,0,0,1,28,68.63a55.44,55.44,0,0,1,3.18-8.75,93.65,93.65,0,0,1,5.07-9.61,118.24,118.24,0,0,1,14.16-19c1.12-1.22,2.28-2.42,3.46-3.58A56.44,56.44,0,0,1,66.7,17.84,14.57,14.57,0,0,1,73,15.94a5,5,0,0,1,2.09.4c2.23,1,2.72,3.75,2.69,6.09A18.71,18.71,0,0,0,77.61,19Zm-15-13.51a14.48,14.48,0,0,1,4.52.71,12.34,12.34,0,0,0-1.72,0c-8.85.55-19.57,9.58-28,23.57A88.38,88.38,0,0,0,25.69,61.89a54.61,54.61,0,0,0-.58,10.38c-1.82-11.2.34-25.66,6.65-39.11A65.15,65.15,0,0,1,44.17,14.91c4.59-4.59,9.49-7.65,14.18-8.84a17.71,17.71,0,0,1,4.29-.56ZM58.69,4.15a23.09,23.09,0,0,1,2.49.14A20,20,0,0,0,58,4.83C53.13,6.1,48,9.27,43.28,14A66.33,66.33,0,0,0,30.62,32.63c-5.15,11-7.75,23-7.34,33.7a44,44,0,0,0,2,11.88C20,67.4,19.25,52.06,24.2,37,28.89,22.77,37.91,11.39,48.34,6.57a24.85,24.85,0,0,1,10.38-2.4ZM21.1,75.64a46.68,46.68,0,0,1-5.34-15.59A55,55,0,0,1,21.9,25.21,46.79,46.79,0,0,1,32.25,12.4,37.51,37.51,0,0,1,45.54,4.9a31.3,31.3,0,0,1,8.09-1.43,27.81,27.81,0,0,0-5.82,2c-10.74,5-20,16.62-24.8,31.18-3.86,11.72-4.46,24-1.69,34.52a38.51,38.51,0,0,0,5.56,12.36A39.23,39.23,0,0,1,21.1,75.64Zm5.43-10.06c.1-1.15.23-2.32.41-3.51a87.09,87.09,0,0,1,11.6-31.64A66.63,66.63,0,0,1,52.23,13.79c4.66-3.89,9.26-6.07,13.28-6.32h.77A9.87,9.87,0,0,1,71.67,9a7.29,7.29,0,0,0-1.22-.23c-7.3-.87-17.64,6.5-27,19.23a101.25,101.25,0,0,0-15,29.87A70.42,70.42,0,0,0,26.53,65.58Zm2.9-6.71.18-.64A100.37,100.37,0,0,1,44.49,28.69a64.7,64.7,0,0,1,14.06-14.5c4-2.82,7.65-4.29,10.71-4.29a6.73,6.73,0,0,1,1,.07,7,7,0,0,1,4.43,2.24,7.19,7.19,0,0,0-1-.4c-2.87-.83-6.69.13-11,2.77A62.51,62.51,0,0,0,48.65,27,111.9,111.9,0,0,0,31.29,54.32C30.61,55.87,30,57.38,29.43,58.87ZM75.63,15.2C71,13.12,62.52,17.46,53,26.81A116.94,116.94,0,0,0,34.24,51.24c-.28.48-.55,1-.82,1.45A111.33,111.33,0,0,1,49.6,27.83,61.31,61.31,0,0,1,63.29,15.66c3.15-1.91,5.95-2.88,8.23-2.88a7.07,7.07,0,0,1,1.83.24,5.25,5.25,0,0,1,3.26,2.75A5.33,5.33,0,0,0,75.63,15.2Z" transform="translate(-5.88 -1.97)"/><path class="cls-2" d="M96,32A46.71,46.71,0,0,0,70,5.39,41.77,41.77,0,0,0,56.7,2.23,32.62,32.62,0,0,0,45.17,3.7l-.7.22a46.63,46.63,0,0,1,8-.69A38,38,0,0,1,65.55,5.29c.65.24,1.29.51,1.91.8a19.46,19.46,0,0,1,5.33,3.55A16.41,16.41,0,0,1,77.61,19a18.54,18.54,0,0,1,.2,3.41v.75C77.14,34.82,65.18,55.5,51,69.41a55.94,55.94,0,0,1-12.82,9.87c-3.59,1.84-6.5,2.36-8.42,1.5-2.23-1-2.72-3.75-2.69-6.09a18.65,18.65,0,0,0,.2,3.42,17.3,17.3,0,0,0,.74,3c.09.27.19.53.29.78a16.4,16.4,0,0,0,1.26,2.47h0l.21.32c.2.31.41.6.63.88h0a19.49,19.49,0,0,0,1.9,2.06l.4.36c.3.26.61.51.92.74l.16.11a21.36,21.36,0,0,0,3.22,2c.44.22.89.42,1.35.61a31.8,31.8,0,0,0,4.47,1.42h-.08a45.56,45.56,0,0,0,7.53,1c.71,0,1.43,0,2.15,0a47.67,47.67,0,0,0,8-.7,39,39,0,0,0,13-7.52A48.28,48.28,0,0,0,84.05,72.53a56.24,56.24,0,0,0,6.29-35.65,48.12,48.12,0,0,0-5.5-16A38.59,38.59,0,0,0,75.17,9.36,45.35,45.35,0,0,1,60.43,93.2l-.7.22a32.55,32.55,0,0,1-13.9,1.26l-.49-.07a45.19,45.19,0,0,0,13.93,0A46.63,46.63,0,0,0,93.54,70.5a35.52,35.52,0,0,0,2.06-4.37,46.78,46.78,0,0,0,1.52-30.88C96.79,34.18,96.43,33.09,96,32ZM28.29,81.35a5,5,0,0,0,1,.57,6.14,6.14,0,0,0,2.6.52c4.87,0,12.09-4.32,20-12.13A117.19,117.19,0,0,0,70.66,45.89l.82-1.46A111.33,111.33,0,0,1,55.3,69.29,61.35,61.35,0,0,1,41.61,81.47c-4,2.45-7.53,3.36-10,2.63A5.25,5.25,0,0,1,28.29,81.35Zm1.87,3.56a6.67,6.67,0,0,0,1.05.4,7.44,7.44,0,0,0,2.15.29c2.53,0,5.56-1,8.9-3.06a62.78,62.78,0,0,0,14-12.42A111.86,111.86,0,0,0,73.61,42.8c.68-1.54,1.3-3.06,1.86-4.54l-.18.63A100.37,100.37,0,0,1,60.41,68.43,65.18,65.18,0,0,1,46.35,82.94c-4.44,3.14-8.51,4.6-11.76,4.22A7,7,0,0,1,30.16,84.91Zm7.58,6h1.73c8.84-.54,19.56-9.57,28-23.57a88.37,88.37,0,0,0,11.77-32.1,54.76,54.76,0,0,0,.58-10.39c1.82,11.2-.34,25.66-6.65,39.11A64.73,64.73,0,0,1,60.76,82.21c-4.59,4.59-9.49,7.65-14.18,8.84a15.56,15.56,0,0,1-8.84-.15Zm6,1.91a21.08,21.08,0,0,0,3.16-.54c4.91-1.24,10-4.42,14.76-9.17A66.37,66.37,0,0,0,74.32,64.5c5.15-11,7.75-22.94,7.34-33.7a44,44,0,0,0-2-11.88c5.23,10.81,6,26.15,1,41.19C76,74.33,67,85.71,56.56,90.53A23.87,23.87,0,0,1,43.7,92.81Zm40.1-71.33a46.68,46.68,0,0,1,5.34,15.59A54.74,54.74,0,0,1,83,71.91,47,47,0,0,1,72.65,84.73a37.49,37.49,0,0,1-13.29,7.49,31.45,31.45,0,0,1-8.1,1.43,28.09,28.09,0,0,0,5.83-2c10.74-5,20-16.63,24.81-31.19,3.86-11.72,4.45-24,1.68-34.52A38.67,38.67,0,0,0,78,13.62a39.51,39.51,0,0,1,5.8,7.86ZM78.41,31.55c-.1,1.15-.23,2.32-.41,3.52A87.3,87.3,0,0,1,66.36,66.7,66.41,66.41,0,0,1,52.67,83.33c-4.66,3.89-9.26,6.08-13.28,6.32a10,10,0,0,1-6.16-1.47,10.09,10.09,0,0,0,1.22.23,11.87,11.87,0,0,0,1.19.07c7.21,0,17-7.25,25.78-19.31A101.36,101.36,0,0,0,76.49,39.25a70.42,70.42,0,0,0,1.88-7.71Z" transform="translate(-5.88 -1.97)"/><path class="cls-3" d="M127.46,82.41c-9.54,0-15.51-7-15.51-17s6-17,15.51-17,15.47,7,15.47,17S137,82.41,127.46,82.41Zm0-4.29c5.66,0,10.18-4.53,10.18-12.71s-4.52-12.67-10.18-12.67-10.22,4.43-10.22,12.67S121.72,78.12,127.46,78.12Z" transform="translate(-5.88 -1.97)"/><path class="cls-3" d="M159.49,62.33a22,22,0,0,0-2.44-.13c-3.62,0-5.52,1.76-5.52,6.87V81.83h-4.71V57.49h4.62v4.3a7.21,7.21,0,0,1,6.74-4.39c.44,0,.87,0,1.31,0Z" transform="translate(-5.88 -1.97)"/><path class="cls-3" d="M178.44,57.49h4.71V89.74h-4.71V78.39c-1.49,2.53-4,4-7.59,4-5.66,0-10.5-4.74-10.5-12.71S165.19,57,170.85,57c3.61,0,6.1,1.49,7.59,4ZM171.93,61c-3.93,0-6.56,3.17-6.56,8.73s2.63,8.78,6.56,8.78c3.62,0,6.7-2.76,6.7-8.78S175.55,61,171.93,61Z" transform="translate(-5.88 -1.97)"/><path class="cls-3" d="M202.69,78.39c-1.4,2.49-3.75,4-7.42,4-5.74,0-8-3.52-8-9.45V57.49H192v14.2c0,3.49.58,6.74,4.84,6.74,4,0,5.88-2.89,5.88-7.73V57.49h4.7V81.83h-4.75Z" transform="translate(-5.88 -1.97)"/><path class="cls-3" d="M229.11,74.68h4.75c-1.09,4-4.8,7.73-11,7.73-7.82,0-12.12-5.69-12.12-12.8,0-7.55,5.06-12.57,12-12.57,7.5,0,11.89,6.15,11.39,14.07h-18.5c.5,4.52,3.26,7.28,7.1,7.28C226.17,78.39,228.07,77,229.11,74.68ZM215.72,67.4h13.57a6.5,6.5,0,0,0-6.48-6.52h-.08C219.07,60.88,216.4,62.74,215.72,67.4Z" transform="translate(-5.88 -1.97)"/><path class="cls-3" d="M251.86,64.28c-.68-2.54-2.76-3.49-5.52-3.49-2.3,0-4.79,1-4.79,2.94,0,1.81,1.17,2.54,3.39,3l3.48.68c4.57,1,8.64,2.4,8.64,7.24s-4.61,7.73-10.22,7.73c-6.2,0-9.91-3.57-10.49-8.14h4.79c.68,2.76,2.4,4.39,5.84,4.39,3.07,0,5.38-1.27,5.38-3.44s-2.13-3.16-4.66-3.66L244,70.8c-3.67-.72-7.11-2.3-7.11-6.92,0-4.29,4.57-6.92,9.87-6.92,4.93,0,8.77,2.58,9.72,7.29Z" transform="translate(-5.88 -1.97)"/><path class="cls-3" d="M261.72,51.25h4.71v6.24h4.79v3.57h-4.79V75c0,2.49.4,3.12,2.76,3.12h2v3.76h-3.44c-4.93,0-6-1.23-6-6.25V61.06H258V57.49h3.71Z" transform="translate(-5.88 -1.97)"/><path class="cls-3" d="M287.46,62.33A22.52,22.52,0,0,0,285,62.2c-3.62,0-5.52,1.76-5.52,6.87V81.83h-4.7V57.49h4.61v4.3a7.23,7.23,0,0,1,6.74-4.39c.44,0,.87,0,1.31,0Z" transform="translate(-5.88 -1.97)"/><path class="cls-3" d="M287.83,75.27c0-5.93,7-7.56,16.41-8.51v-.49c0-4.3-2.26-5.75-5.24-5.75-3.26,0-5.11,1.63-5.29,4.66H289c.36-5.2,4.66-8.28,10.22-8.28,6.29,0,9.86,3,9.81,10.32,0,.58-.09,4.79-.09,5.83a45.35,45.35,0,0,0,.68,8.78H305.1a28.91,28.91,0,0,1-.41-3.22c-1.49,2.54-4.2,3.8-8.14,3.8C291.58,82.41,287.83,79.7,287.83,75.27Zm16.64-5c-7.55.72-11.53,1.81-11.53,4.93,0,2.21,1.72,3.62,4.61,3.62,3.85,0,6.92-2,6.92-6.79Z" transform="translate(-5.88 -1.97)"/><text class="cls-4" transform="translate(304.68 59.73)">®</text><path class="cls-5" d="M335.89,44H463.42a8.31,8.31,0,0,1,4.65.86,5.62,5.62,0,0,1,2.29,2.39,10.09,10.09,0,0,1,.79,4.91V86.94a9.84,9.84,0,0,1-.79,4.91,5.78,5.78,0,0,1-2.29,2.41,8.58,8.58,0,0,1-4.65.84H335.89a8.63,8.63,0,0,1-4.66-.84,5.73,5.73,0,0,1-2.29-2.41,9.59,9.59,0,0,1-.68-4.91V52.17a9.53,9.53,0,0,1,.81-4.91,5.51,5.51,0,0,1,2.29-2.39A8.27,8.27,0,0,1,335.89,44Z" transform="translate(-5.88 -1.97)"/><path class="cls-6" d="M356.49,57.92c7.33,0,12.41,4.65,12.41,11.65s-5.08,11.72-12.36,11.72h-9.26V57.92Zm0,4.37h-4.3v14.6h4.25a7,7,0,0,0,7.42-6.54,6.77,6.77,0,0,0,0-.78,6.83,6.83,0,0,0-6.33-7.28,7.53,7.53,0,0,0-1,0Z" transform="translate(-5.88 -1.97)"/><path class="cls-6" d="M418.88,81.7A10.72,10.72,0,0,0,428.62,76l-4.27-2.06a6.33,6.33,0,0,1-5.47,3.38,7.27,7.27,0,0,1-7.36-7.18c0-.15,0-.3,0-.45A7.28,7.28,0,0,1,418.44,62h.44a6.31,6.31,0,0,1,5.47,3.41l4.27-2.11a10.61,10.61,0,0,0-9.74-5.72,12.11,12.11,0,1,0-1.11,24.19q.56,0,1.11,0Z" transform="translate(-5.88 -1.97)"/><path class="cls-6" d="M444.09,81.7c6.28,0,9.36-3.23,9.36-7.63,0-8.72-13.43-6.23-13.43-9.92,0-1.4,1.19-2.31,3.3-2.31a10,10,0,0,1,6.79,2.54l2.78-3.56a13,13,0,0,0-9.11-3.26c-5.52,0-8.88,3.23-8.88,7.1,0,8.8,13.46,6,13.46,10.17,0,1.35-1.3,2.55-4.07,2.55a10.23,10.23,0,0,1-7.43-3.16l-2.72,3.89A13.39,13.39,0,0,0,444.09,81.7Z" transform="translate(-5.88 -1.97)"/><path class="cls-6" d="M387.77,62.12a7.63,7.63,0,1,1-7.34,7.9c0-.09,0-.18,0-.27a7.46,7.46,0,0,1,7.28-7.63Zm0-4.61a12.13,12.13,0,1,0,11.85,12.41,2.53,2.53,0,0,0,0-.28A12,12,0,0,0,387.8,57.51Z" transform="translate(-5.88 -1.97)"/></svg>