<svg xmlns="http://www.w3.org/2000/svg" width="361.096" height="110.802"><g data-name="Group 1853"><g data-name="Group 1630"><path data-name="Path 8062" d="M85.305 20.266a21.327 21.327 0 00-.88-3.6 16.267 16.267 0 00-.345-.917l-.035-.089a19.957 19.957 0 00-1.461-2.845l-.018-.029c-.08-.128-.162-.254-.244-.38-.244-.365-.5-.718-.756-1.056a23.926 23.926 0 00-11.537-7.758 44.672 44.672 0 00-12.09-2.04q-1.272-.059-2.551-.059a54.249 54.249 0 00-9.487.829 46.309 46.309 0 00-15.5 8.939 57.115 57.115 0 00-12.638 15.644 66.766 66.766 0 00-7.475 42.386 57.138 57.138 0 006.529 19.025 46.312 46.312 0 0011.505 13.7A53.907 53.907 0 0145.903 2.321c.276-.092.553-.182.831-.269A38.925 38.925 0 0163.105.543c.328.042.654.087.981.136a55.932 55.932 0 00-16.695-.1 55.374 55.374 0 00-5.67 1.121 53.011 53.011 0 00-7.9 2.66 56.26 56.26 0 00-16.589 10.881 55.431 55.431 0 00-15.824 52.6A54.975 54.975 0 007.077 82.5a55.653 55.653 0 0021.962 21.629 57.82 57.82 0 0014.754 5.44 37.821 37.821 0 0016.389.163q1.955-.4 3.862-1c.277-.087.554-.177.83-.269-.876.147-2.049.32-3 .434a44.717 44.717 0 01-3.205.291 51.765 51.765 0 01-16.056-1.49 34.012 34.012 0 01-5.142-1.856 21.324 21.324 0 01-9.9-8.979 19.738 19.738 0 01-2.09-6.346 27.618 27.618 0 01.857-11.271 65.9 65.9 0 013.784-10.4 111.33 111.33 0 016.017-11.417c2.393-4 5-7.868 7.778-11.606a136.242 136.242 0 019.055-10.961q2-2.181 4.117-4.26c5.436-5.343 10.709-9.4 15.247-11.731a17.292 17.292 0 017.521-2.264 6.069 6.069 0 012.491.48c2.65 1.184 3.229 4.457 3.2 7.239a23.232 23.232 0 00-.243-4.06zM67.505 4.21a17.192 17.192 0 015.379.842 15.36 15.36 0 00-2.054-.008c-10.513.645-23.258 11.385-33.262 28.015a105.293 105.293 0 00-13.992 38.176 65.581 65.581 0 00-.688 12.346c-2.169-13.311.405-30.5 7.9-46.5a77.38 77.38 0 0114.757-21.7C51 9.92 56.83 6.281 62.407 4.869a20.677 20.677 0 015.097-.659zm-4.656-1.6a24.89 24.89 0 012.952.175 23.1 23.1 0 00-3.759.637c-5.84 1.482-11.908 5.254-17.553 10.907a78.886 78.886 0 00-15.05 22.118c-6.121 13.052-9.22 27.282-8.732 40.072a52.576 52.576 0 002.332 14.127c-6.211-12.856-7.122-31.095-1.235-48.972 5.574-16.924 16.3-30.452 28.7-36.184a29.377 29.377 0 0112.344-2.88zM18.121 87.582a55.664 55.664 0 01-6.356-18.529 65.261 65.261 0 017.3-41.42 55.655 55.655 0 0112.314-15.239 44.6 44.6 0 0115.8-8.914 37.887 37.887 0 019.619-1.7 33.561 33.561 0 00-6.922 2.349c-12.766 5.9-23.792 19.764-29.493 37.075-4.589 13.935-5.3 28.511-2 41.043a45.689 45.689 0 006.6 14.687 46.73 46.73 0 01-6.862-9.352zm6.451-11.953q.178-2.042.485-4.177A103.758 103.758 0 0138.85 33.829a78.787 78.787 0 0116.283-19.775c5.541-4.624 11-7.224 15.788-7.517.308-.019.613-.029.914-.029a11.763 11.763 0 016.407 1.783 10.7 10.7 0 00-1.447-.273c-8.686-1.032-20.975 7.73-32.073 22.867A120.652 120.652 0 0026.806 66.46a84.235 84.235 0 00-2.234 9.169zm3.445-7.981c.073-.25.145-.5.221-.751A119.141 119.141 0 0145.929 31.77c5.4-7.37 11.182-13.335 16.709-17.249 4.729-3.348 9.1-5.089 12.732-5.089a10.729 10.729 0 011.25.071 8.272 8.272 0 015.27 2.67 7.7 7.7 0 00-1.244-.478c-3.412-.981-7.957.157-13.143 3.293-5.214 3.155-10.964 8.265-16.627 14.776a132.527 132.527 0 00-20.637 32.471q-1.223 2.762-2.221 5.408zm54.938-51.919c-5.537-2.473-15.6 2.689-26.915 13.812a139.173 139.173 0 00-22.301 29.031q-.5.868-.975 1.727a132.134 132.134 0 0119.24-29.553c5.564-6.4 11.191-11.4 16.274-14.475 3.744-2.265 7.074-3.425 9.781-3.425a7.841 7.841 0 012.173.289 6.248 6.248 0 013.877 3.272 6 6 0 00-1.154-.678z" fill="#00b478"/><path data-name="Path 8063" d="M107.185 35.716a55.395 55.395 0 00-12.859-19.722 56 56 0 00-9.776-7.707 55.215 55.215 0 00-8.28-4.218A49.621 49.621 0 0060.448.309a38.928 38.928 0 00-13.716 1.743c-.278.087-.555.177-.831.269a54.25 54.25 0 019.487-.829 45.135 45.135 0 0115.547 2.457q1.156.426 2.278.943a23.171 23.171 0 016.327 4.221 19.519 19.519 0 015.764 11.156 23.108 23.108 0 01.241 4.06q-.011.439-.032.888C84.74 39.059 70.52 63.645 53.691 80.184c-5.437 5.343-10.71 9.4-15.248 11.731-4.261 2.19-7.722 2.806-10.011 1.783-2.651-1.184-3.23-4.457-3.2-7.238a23.09 23.09 0 00.241 4.059 21.431 21.431 0 00.877 3.6q.162.471.345.918a20.234 20.234 0 001.5 2.938l.015.024a16.597 16.597 0 001.004 1.436 21.275 21.275 0 002.252 2.447c.158.146.317.291.479.432q.533.462 1.095.881l.187.137a25.963 25.963 0 003.832 2.314q.786.385 1.6.719a36.54 36.54 0 005.322 1.693h-.1a53.757 53.757 0 008.957 1.17q1.273.059 2.555.059a55.387 55.387 0 009.488-.829 46.326 46.326 0 0015.5-8.939 57.155 57.155 0 0012.642-15.645 66.755 66.755 0 007.474-42.386 57.137 57.137 0 00-6.534-19.019 46.328 46.328 0 00-11.505-13.7 53.907 53.907 0 01-17.58 99.692c-.276.092-.553.182-.83.269a38.935 38.935 0 01-16.527 1.489l-.587-.078a54.291 54.291 0 0016.563.051 54.965 54.965 0 0021.931-8.253 55.654 55.654 0 0018.82-20.42 43.32 43.32 0 002.447-5.2 55.144 55.144 0 003.795-15.163 55.9 55.9 0 00-1.983-21.544q-.589-1.971-1.322-3.896zm-80.513 58.66a5.865 5.865 0 001.154.68 7.5 7.5 0 003.094.609c5.8 0 14.37-5.133 23.82-14.419a139.149 139.149 0 0022.3-29.036q.5-.867.976-1.726a132.107 132.107 0 01-19.242 29.552c-5.564 6.4-11.191 11.4-16.273 14.476-4.82 2.915-8.954 4-11.956 3.136a6.246 6.246 0 01-3.873-3.272zm2.22 4.233a7.688 7.688 0 001.242.478 9.272 9.272 0 002.564.342c3 0 6.6-1.23 10.579-3.636 5.213-3.154 10.964-8.263 16.628-14.775a132.51 132.51 0 0020.637-32.47q1.222-2.762 2.221-5.408c-.074.25-.146.5-.222.751a119.107 119.107 0 01-17.693 35.122c-5.4 7.37-11.183 13.335-16.71 17.248-5.283 3.742-10.118 5.476-13.98 5.018a8.272 8.272 0 01-5.266-2.671zm9.006 7.123c.353.025.712.039 1.075.039q.485 0 .98-.031c10.512-.646 23.256-11.381 33.261-28.017a105.3 105.3 0 0013.992-38.175 65.667 65.667 0 00.687-12.346c2.169 13.311-.405 30.5-7.9 46.5a77.375 77.375 0 01-14.758 21.7c-5.454 5.462-11.284 9.1-16.861 10.513a18.6 18.6 0 01-10.476-.184zm7.086 2.266a23.053 23.053 0 003.756-.636c5.839-1.483 11.908-5.255 17.553-10.906a78.908 78.908 0 0015.053-22.12c6.117-13.052 9.218-27.283 8.729-40.072a52.622 52.622 0 00-2.333-14.127c6.211 12.856 7.123 31.095 1.235 48.972-5.574 16.924-16.3 30.45-28.7 36.184a28.31 28.31 0 01-15.293 2.704zm47.676-84.8a55.663 55.663 0 016.355 18.529 65.261 65.261 0 01-7.3 41.42 55.669 55.669 0 01-12.309 15.238 44.607 44.607 0 01-15.8 8.914 37.922 37.922 0 01-9.624 1.7 33.529 33.529 0 006.925-2.352c12.768-5.9 23.792-19.764 29.493-37.075 4.589-13.935 5.3-28.511 2-41.043a45.672 45.672 0 00-6.6-14.688 46.7 46.7 0 016.86 9.359zm-6.452 11.96q-.177 2.042-.484 4.177A103.783 103.783 0 0171.93 76.952a78.737 78.737 0 01-16.282 19.777c-5.54 4.624-11 7.224-15.786 7.517a12 12 0 01-7.323-1.755 10.729 10.729 0 001.447.273 12.035 12.035 0 001.416.082c8.573 0 20.151-8.618 30.658-22.95a120.681 120.681 0 0017.916-35.575 84.211 84.211 0 002.232-9.163z" fill="#00eb80"/></g><g data-name="Group 1632"><g data-name="Group 1631" fill="#fff"><path data-name="Path 8064" d="M144.58 95.64c-11.348 0-18.447-8.337-18.447-20.221s7.1-20.167 18.447-20.167c11.293 0 18.392 8.282 18.392 20.167S155.869 95.64 144.58 95.64zm0-5.11c6.722 0 12.1-5.379 12.1-15.111 0-9.788-5.377-15.059-12.1-15.059-6.83 0-12.154 5.27-12.154 15.059-.005 9.733 5.319 15.112 12.154 15.112z"/><path data-name="Path 8065" d="M182.652 71.761a28.247 28.247 0 00-2.9-.161c-4.3 0-6.56 2.1-6.56 8.175V94.94h-5.593V66.008h5.484v5.109a8.588 8.588 0 018.013-5.217 15.2 15.2 0 011.56.054z"/><path data-name="Path 8066" d="M205.187 66.008h5.593v38.345h-5.593v-13.5c-1.775 3.011-4.733 4.787-9.035 4.787-6.723 0-12.478-5.647-12.478-15.112s5.754-15.059 12.478-15.059c4.3 0 7.26 1.775 9.035 4.787zm-7.745 4.141c-4.68 0-7.8 3.764-7.8 10.379s3.118 10.433 7.8 10.433c4.3 0 7.96-3.28 7.96-10.433s-3.657-10.379-7.959-10.379z"/><path data-name="Path 8067" d="M234.017 90.854c-1.667 2.958-4.463 4.787-8.819 4.787-6.83 0-9.466-4.2-9.466-11.241V66.008h5.585v16.886c0 4.141.7 8.013 5.754 8.013 4.733 0 6.991-3.442 6.991-9.2v-15.7h5.594v28.932h-5.639z"/><path data-name="Path 8068" d="M265.422 86.443h5.646c-1.291 4.787-5.7 9.2-13.014 9.2-9.3 0-14.414-6.777-14.414-15.22 0-8.98 6.023-14.951 14.251-14.951 8.929 0 14.144 7.314 13.554 16.726h-22.051c.592 5.377 3.874 8.659 8.444 8.659 4.087-.004 6.346-1.672 7.584-4.414zm-15.92-8.659h16.134a7.724 7.724 0 00-7.8-7.743c-4.354-.001-7.526 2.205-8.334 7.743z"/><path data-name="Path 8069" d="M292.473 74.075c-.807-3.012-3.28-4.141-6.562-4.141-2.743 0-5.7 1.129-5.7 3.5 0 2.151 1.4 3.013 4.033 3.6l4.141.806c5.431 1.129 10.272 2.85 10.272 8.6 0 5.862-5.486 9.2-12.154 9.2-7.368 0-11.779-4.249-12.478-9.681h5.7c.807 3.281 2.851 5.217 6.937 5.217 3.657 0 6.4-1.506 6.4-4.087 0-2.635-2.526-3.764-5.539-4.356l-4.356-.86c-4.356-.861-8.444-2.744-8.444-8.228 0-5.109 5.432-8.228 11.724-8.228 5.863 0 10.434 3.066 11.563 8.659z"/><path data-name="Path 8070" d="M304.198 58.586h5.593v7.422h5.7v4.248h-5.7v16.51c0 2.958.484 3.711 3.28 3.711h2.366v4.461h-4.086c-5.862 0-7.152-1.452-7.152-7.421V70.256h-4.411v-4.248h4.411z"/><path data-name="Path 8071" d="M334.797 71.761a28.243 28.243 0 00-2.9-.161c-4.3 0-6.562 2.1-6.562 8.175V94.94h-5.592V66.008h5.486v5.109a8.586 8.586 0 018.012-5.217 15.2 15.2 0 011.56.054z"/><path data-name="Path 8072" d="M335.23 87.143c0-7.045 8.335-8.981 19.521-10.11v-.591c0-5.11-2.688-6.831-6.237-6.831-3.872 0-6.078 1.937-6.292 5.54h-5.647c.429-6.185 5.539-9.842 12.153-9.842 7.476 0 11.725 3.6 11.67 12.261 0 .7-.107 5.7-.107 6.937a53.568 53.568 0 00.806 10.433h-5.377a32.7 32.7 0 01-.484-3.818q-2.663 4.517-9.68 4.518c-5.863 0-10.326-3.227-10.326-8.497zm19.791-5.971c-8.981.861-13.714 2.152-13.714 5.863 0 2.635 2.044 4.3 5.486 4.3 4.571 0 8.229-2.312 8.229-8.067z"/></g></g></g></svg>